<?xml version="1.0"?>
<svg width="500" height="92.355" xmlns="http://www.w3.org/2000/svg" xmlns:svg="http://www.w3.org/2000/svg" version="1.1">
 <defs id="defs14">
  <linearGradient id="gradient-0" x1="0.48" x2="0.48" y1="0.02" y2="0.97">
   <stop id="stop10" offset="0" stop-color="rgba(0, 150, 135, 1)"/>
   <stop id="stop12" offset="1" stop-color="rgba(0, 48, 43, 1)"/>
  </linearGradient>
 </defs>
 <g class="layer">
  <title>Layer 1</title>
  <path d="m-4,39.67c12.27,9.49 39.01,16.53 86.22,15.67c47.22,-0.86 125.2,-14.46 194.31,-24.28c69.12,-9.81 179.48,-23.92 221.06,-29.78c41.58,-5.86 58.6,9.53 22.4,11.07c-36.2,1.54 -124.57,5.31 -191.41,14.32c-66.85,9 -154.28,30.22 -206.7,34.73c-52.42,4.52 -81.25,1.84 -106.08,-5.25c-24.84,-7.09 -33.36,-19.62 -36.63,-23.78c-3.26,-4.15 4.56,-2.18 16.83,7.3z" fill="url(#gradient-0)" id="path22" stroke-linejoin="bevel" stroke-width="11.58" transform="matrix(1 0 0 1 0 0)"/>
  <path d="m-17.57,96.41l529.03,-2.45l0.62,-79.8c-43.04,1.97 -87.41,5.23 -140.72,9.63c-53.31,4.4 -157.03,24.05 -212.63,34.75c-55.59,10.69 -100.74,6.74 -130.85,2.26c-30.11,-4.48 -35.61,-16.65 -46.48,-17.74l1.03,53.35z" fill="#b52727" id="path24" stroke-linejoin="bevel" stroke-width="11.58"/>
 </g>
</svg>